# xmcd
#
# Track frame offsets:
#	150
#	16620
#	32552
#	45937
#	58260
#	71440
#	84497
#	100092
#	112687
#	123797
#	137962
#	152770
#	164390
#	179862
#	196850
#
# Disc length: 2853 seconds
#
# Revision: 3
# Processed by: cddbd v1.5.2PL0 Copyright (c) Steve Scherf et al.
# Submitted via: audiograbber 1.83.01
#
DISCID=b90b230f
DTITLE=Carl Jackson - Nashville Country Duets
DYEAR=1993
DGENRE=Country
TTITLE0=Gone, Gone, Gone (with Ricky Skaggs)
TTITLE1=To Keep Your Memory Green (with Sharon White and Cheryl White)
TTITLE2=Under Your Spell Again (with Emmylou Harris)
TTITLE3=Walk Through This World With Me (with Emmylou Harris)
TTITLE4=I'll Never Love Another (with Emmylou Harris)
TTITLE5=Something Draws Me To You (with Emmylou Harris)
TTITLE6=When My Blue Moon Turns To Gold Again (with Emmylou Harris)
TTITLE7=You Made A Memory Of Me (with Sharon White and Cheryl White)
TTITLE8=I Take The Chance (with Emmylou Harris)
TTITLE9=Before I Met You (with Ricky Skaggs)
TTITLE10=I've Always Needed You (with Emmylou Harris) 
TTITLE11=We Must Have Been Out Of Our Minds (with Emmylou Harris)
TTITLE12=Dying On Sorrow's Wine
TTITLE13=The Best We Could Do
TTITLE14=Nobody's Darling But Mine
EXTD=
EXTT0=
EXTT1=
EXTT2=
EXTT3=
EXTT4=
EXTT5=
EXTT6=
EXTT7=
EXTT8=
EXTT9=
EXTT10=
EXTT11=
EXTT12=
EXTT13=
EXTT14=
PLAYORDER=
